<svg fill="none" xmlns="http://www.w3.org/2000/svg" viewBox="0 0 24 24">
  <path d="M17.333 9.333c0-3.683-3.879-6.666-8.666-6.666C3.879 2.667 0 5.65 0 9.333c0 1.43.588 2.746 1.583 3.834-.558 1.258-1.479 2.258-1.491 2.27a.331.331 0 00-.063.363c.054.125.171.2.304.2 1.525 0 2.788-.512 3.696-1.042C5.371 15.613 6.96 16 8.667 16c4.787 0 8.666-2.983 8.666-6.667zm5.084 9.167C23.412 17.417 24 16.096 24 14.667c0-2.788-2.23-5.175-5.387-6.171.037.275.054.554.054.837 0 4.413-4.488 8-10 8-.45 0-.888-.033-1.321-.079 1.312 2.396 4.396 4.08 7.987 4.08 1.709 0 3.296-.384 4.638-1.042.908.529 2.17 1.041 3.696 1.041a.334.334 0 00.242-.563c-.013-.012-.934-1.008-1.492-2.27z" fill="#000"/>
</svg>
