<svg width="24" height="24" viewBox="0 0 24 24" fill="none" xmlns="http://www.w3.org/2000/svg">
<path d="M12 22.5C13.4487 22.5 14.6238 21.3249 14.6238 19.875H9.37623C9.37623 21.3249 10.5513 22.5 12 22.5ZM20.8344 16.3595C20.0419 15.5081 18.5592 14.2271 18.5592 10.0312C18.5592 6.84434 16.3247 4.29316 13.3117 3.66727V2.8125C13.3117 2.08775 12.7243 1.5 12 1.5C11.2757 1.5 10.6883 2.08775 10.6883 2.8125V3.66727C7.67532 4.29316 5.44079 6.84434 5.44079 10.0312C5.44079 14.2271 3.95807 15.5081 3.16565 16.3595C2.91956 16.6241 2.81045 16.9403 2.81251 17.25C2.81702 17.9227 3.34489 18.5625 4.12911 18.5625H19.8709C20.6551 18.5625 21.1834 17.9227 21.1875 17.25C21.1896 16.9403 21.0805 16.6237 20.8344 16.3595V16.3595Z" fill="black"/>
</svg>
